<?xml version="1.0" encoding="utf-8"?>
<!-- Generator: Adobe Illustrator 19.0.0, SVG Export Plug-In . SVG Version: 6.00 Build 0)  -->
<svg version="1.1" id="Layer_1" xmlns="http://www.w3.org/2000/svg" xmlns:xlink="http://www.w3.org/1999/xlink" x="0px" y="0px"
	 viewBox="-49 141 512 512" style="enable-background:new -49 141 512 512;" xml:space="preserve">
<style type="text/css">
	.st0{fill:#FFA64D;}
	.st1{fill:#333333;}
</style>
<g>
	<path class="st0" d="M207,557c81.4,0,101.2-68.4,103.7-78.7L263,461c0,30.9-25.1,48-56,48s-56-17.1-56-48l-47.7,17.3
		C105.8,488.7,125.6,557,207,557z"/>
	<path class="st0" d="M99.7,367.8c-3.4,1.5-6.4,3.6-9,6.2l-3.7,3.7l-3.7-3.7c-5.8-5.8-13.5-9-21.7-9C44.7,365,31,378.8,31,395.6
		c0,8.2,3.2,15.9,9,21.7l47,47l37.7-37.7L99.7,367.8z"/>
	<path class="st0" d="M352.4,365c-8.2,0-15.9,3.2-21.7,9l-3.7,3.7l-3.7-3.7c-2.6-2.6-5.6-4.7-8.9-6.2l-25,58.9l37.6,37.6l47-47
		c5.8-5.8,9-13.5,9-21.7C383,378.7,369.3,365,352.4,365z"/>
</g>
<path class="st1" d="M427.3,645L383,545.3V325c0-97-79-176-176-176S31,228,31,325v220.3L-13.3,645H427.3z M14.9,621H55
	c13.2,0,24-10.8,24-24v-18l26.7,50H11.3L14.9,621z M47,549v-0.3l7.2-16.2L63,549v48c0,4.4-3.6,8-8,8H22l24.9-56H47z M279,629h-28.5
	l28.5-75.9V629z M135,629v-75.9l28.5,75.9H135z M193.8,629l13.2-44.2l13.2,44.2L193.8,629L193.8,629z M308.3,629l10.8-20.2
	l-14.1-7.5L295,620V512.7c-6.7,9.9-15.8,20.1-28.5,28.2l-31.1,82.9l-20.2-67.2c-2.7,0.2-5.3,0.4-8.2,0.4s-5.5-0.3-8.2-0.4
	l-20.2,67.2l-31.1-82.9c-12.7-8.1-21.8-18.3-28.5-28.2V620L63.2,515.5c8.4-12.1,20.5-21.5,34.4-26.6l46.3-16.8
	c5.1,27.3,29.1,44.9,63,44.9s57.9-17.6,63-44.9l46.3,16.8c14,5.1,26,14.5,34.4,26.6l-37.2,69.8l14.1,7.5L335,579v18
	c0,13.2,10.8,24,24,24h40.1l3.6,8L308.3,629L308.3,629z M255,365c0,4.4-3.6,8-8,8s-8-3.6-8-8s3.6-8,8-8S255,360.6,255,365z
	 M215.4,261h25.3c7.9,28.5,31.1,51.6,62.3,61.9v23.3l-24.8-7.6C243,327.7,218.5,297.1,215.4,261z M167,357c4.4,0,8,3.6,8,8
	s-3.6,8-8,8s-8-3.6-8-8S162.6,357,167,357z M135.8,338.5l-24.8,7.6v-23.4c7.6-2.5,14.9-5.6,21.5-9.7l-8.3-13.7
	c-4.2,2.5-8.6,4.6-13.3,6.4V285c0-13.2,10.8-24,24-24h21.5c-4.1,11.6-11.4,22-21.5,30.7l10.3,12.2c13.9-11.8,23.5-26.5,28-42.9h25.3
	C195.5,297.1,171,327.7,135.8,338.5z M303,305.8c-22-8.7-38.5-24.9-45.6-44.8H279c13.2,0,24,10.8,24,24V305.8z M303,253.2
	c-6.7-5.1-15-8.2-24-8.2H135c-9,0-17.3,3.1-24,8.2V253c0-13.2,10.8-24,24-24h144c13.2,0,24,10.8,24,24V253.2z M140.5,353.8
	c2.3-0.7,4.5-1.5,6.7-2.3c-2.6,3.9-4.2,8.5-4.2,13.5c0,13.2,10.8,24,24,24s24-10.8,24-24c0-13-10.5-23.6-23.4-23.9
	c17.7-11.6,31.4-28.2,39.4-47.6c8,19.4,21.7,36,39.4,47.6c-13,0.3-23.4,10.9-23.4,23.9c0,13.2,10.8,24,24,24s24-10.8,24-24
	c0-5-1.6-9.7-4.2-13.5c2.2,0.8,4.4,1.6,6.7,2.3l29.2,9C299.7,413,258,453,207,453s-92.7-40-95.7-90.2L140.5,353.8z M207,469
	c17.2,0,33.4-4,48-11v3c0,29.5-25.9,40-48,40s-48-10.5-48-40v-3C173.6,465,189.8,469,207,469z M367.1,549l24.9,56h-33
	c-4.4,0-8-3.6-8-8v-48l8.8-16.5l7.2,16.2v0.3H367.1z M207,165c88.2,0,160,71.8,160,160v186.2c-10.3-17.1-26.3-30.5-45.2-37.3
	L271,455.4v-6.6c29-20.3,48-53.8,48-91.8v-48v-24v-32c0-22.1-17.9-40-40-40H135c-22.1,0-40,17.9-40,40v32v24v48
	c0,38,19,71.5,48,91.8v6.6l-50.8,18.5c-18.9,6.9-34.9,20.2-45.2,37.3V325C47,236.8,118.8,165,207,165z"/>
</svg>
